<?xml version="1.0" encoding="UTF-8"?>
<svg version="1.1" xmlns="http://www.w3.org/2000/svg" width="512" height="512">
<path d="M0 0 C1.1150592 -0.00686325 2.23011841 -0.0137265 3.37896729 -0.02079773 C7.04330392 -0.03901023 10.7072101 -0.03523572 14.37158203 -0.02954102 C16.93311705 -0.03410566 19.49465084 -0.03941207 22.05618286 -0.04542542 C27.4173946 -0.05434583 32.77845134 -0.05218162 38.13964844 -0.04199219 C44.31150599 -0.03052025 50.48292852 -0.04458016 56.65472877 -0.07138866 C62.62253862 -0.09632764 68.59021483 -0.09870471 74.55807877 -0.0922718 C77.08330127 -0.09211898 79.60853231 -0.09813093 82.13372421 -0.11056328 C85.67280659 -0.1255329 89.210946 -0.1147509 92.75 -0.09765625 C93.78099823 -0.10732422 94.81199646 -0.11699219 95.87423706 -0.12695312 C108.6980288 0.00197399 120.3893042 5.40174406 129.75439453 14.09155273 C138.62368085 23.48045381 143.09720644 35.50156648 142.94189453 48.27905273 C142.93053467 49.59558838 142.93053467 49.59558838 142.91894531 50.9387207 C142.74666733 57.73049722 141.70820156 63.34467857 138.50439453 69.40405273 C137.85083984 70.68989258 137.85083984 70.68989258 137.18408203 72.00170898 C130.71110795 83.72734235 121.13411594 91.03771932 108.50439453 95.40405273 C107.18439453 95.40405273 105.86439453 95.40405273 104.50439453 95.40405273 C104.50439453 96.06405273 104.50439453 96.72405273 104.50439453 97.40405273 C105.52791016 97.50717773 106.55142578 97.61030273 107.60595703 97.71655273 C117.98444393 99.54682698 127.06717624 106.23723841 133.50439453 114.40405273 C139.67683488 123.79158839 143.07856622 133.03509444 142.94189453 144.27905273 C142.93053467 145.59558838 142.93053467 145.59558838 142.91894531 146.9387207 C142.74666733 153.73049722 141.70820156 159.34467857 138.50439453 165.40405273 C138.06869141 166.2612793 137.63298828 167.11850586 137.18408203 168.00170898 C130.35814775 180.36672108 120.253327 187.50909335 106.92895508 191.79980469 C102.83102793 192.82108852 98.8352004 192.89267482 94.62939453 192.84155273 C93.31285889 192.83019287 93.31285889 192.83019287 91.96972656 192.81860352 C85.17795005 192.64632553 79.5637687 191.60785976 73.50439453 188.40405273 C72.21855469 187.75049805 72.21855469 187.75049805 70.90673828 187.08374023 C58.842855 180.42403996 52.4911833 171.02397746 47.50439453 158.40405273 C47.5007489 159.53220901 47.49710327 160.6603653 47.49334717 161.82270813 C47.45630057 172.48865692 47.39842259 183.15431958 47.32049179 193.82005024 C47.28109313 199.30257117 47.24886732 204.78493331 47.23339844 210.26757812 C47.21818174 215.56514887 47.18364733 220.86228284 47.13608551 226.15965843 C47.12132332 228.17406593 47.1133565 230.1885358 47.11251068 232.20299721 C47.09553406 252.37368223 47.09553406 252.37368223 42.50439453 261.40405273 C42.03517578 262.38760742 41.56595703 263.37116211 41.08251953 264.38452148 C33.49808365 276.98806935 22.84274868 284.83065363 8.50439453 288.40405273 C5.19945893 288.8160438 1.95722458 288.88200292 -1.37060547 288.84155273 C-2.2482959 288.83397949 -3.12598633 288.82640625 -4.03027344 288.81860352 C-10.82204995 288.64632553 -16.4362313 287.60785976 -22.49560547 284.40405273 C-23.35283203 283.96834961 -24.21005859 283.53264648 -25.09326172 283.08374023 C-37.45827381 276.25780596 -44.60064609 266.1529852 -48.89135742 252.82861328 C-49.91264125 248.73068613 -49.98422755 244.73485861 -49.93310547 240.52905273 C-49.92553223 239.6513623 -49.91795898 238.77367187 -49.91015625 237.86938477 C-49.73787827 231.07760825 -48.6994125 225.4634269 -45.49560547 219.40405273 C-45.05990234 218.54682617 -44.62419922 217.68959961 -44.17529297 216.80639648 C-37.70231889 205.08076312 -28.12532687 197.77038614 -15.49560547 193.40405273 C-14.17560547 193.40405273 -12.85560547 193.40405273 -11.49560547 193.40405273 C-11.49560547 192.74405273 -11.49560547 192.08405273 -11.49560547 191.40405273 C-13.03087891 191.24936523 -13.03087891 191.24936523 -14.59716797 191.09155273 C-24.97565487 189.26127849 -34.05838717 182.57086706 -40.49560547 174.40405273 C-46.66804582 165.01651708 -50.06977716 155.77301103 -49.93310547 144.52905273 C-49.92553223 143.6513623 -49.91795898 142.77367187 -49.91015625 141.86938477 C-49.73787827 135.07760825 -48.6994125 129.4634269 -45.49560547 123.40405273 C-45.05990234 122.54682617 -44.62419922 121.68959961 -44.17529297 120.80639648 C-37.70231889 109.08076312 -28.12532687 101.77038614 -15.49560547 97.40405273 C-14.17560547 97.40405273 -12.85560547 97.40405273 -11.49560547 97.40405273 C-11.49560547 96.74405273 -11.49560547 96.08405273 -11.49560547 95.40405273 C-12.51912109 95.30092773 -13.54263672 95.19780273 -14.59716797 95.09155273 C-24.97565487 93.26127849 -34.05838717 86.57086706 -40.49560547 78.40405273 C-46.66804582 69.01651708 -50.06977716 59.77301103 -49.93310547 48.52905273 C-49.92553223 47.6513623 -49.91795898 46.77367187 -49.91015625 45.86938477 C-49.73787827 39.07760825 -48.6994125 33.4634269 -45.49560547 27.40405273 C-45.05990234 26.54682617 -44.62419922 25.68959961 -44.17529297 24.80639648 C-37.37719424 12.4918078 -27.34243575 5.38930313 -14.1011467 1.05218315 C-9.43075295 -0.10958094 -4.78936815 -0.02083003 0 0 Z M46.50439453 96.40405273 C46.50439453 108.94405273 46.50439453 121.48405273 46.50439453 134.40405273 C47.76338833 131.88606514 48.9897791 129.35124677 50.16845703 126.79467773 C56.56807524 113.12568627 63.72102199 104.91647141 78.20751953 99.36889648 C80.29048813 98.66474829 82.39552323 98.02634263 84.50439453 97.40405273 C84.50439453 97.07405273 84.50439453 96.74405273 84.50439453 96.40405273 C71.96439453 96.40405273 59.42439453 96.40405273 46.50439453 96.40405273 Z " fill="#A158FF" transform="translate(209.49560546875,111.595947265625)"/>
<path d="M0 0 C1.1150592 -0.00686325 2.23011841 -0.0137265 3.37896729 -0.02079773 C7.04330392 -0.03901023 10.7072101 -0.03523572 14.37158203 -0.02954102 C16.93311705 -0.03410566 19.49465084 -0.03941207 22.05618286 -0.04542542 C27.4173946 -0.05434583 32.77845134 -0.05218162 38.13964844 -0.04199219 C44.31150599 -0.03052025 50.48292852 -0.04458016 56.65472877 -0.07138866 C62.62253862 -0.09632764 68.59021483 -0.09870471 74.55807877 -0.0922718 C77.08330127 -0.09211898 79.60853231 -0.09813093 82.13372421 -0.11056328 C85.67280659 -0.1255329 89.210946 -0.1147509 92.75 -0.09765625 C93.78099823 -0.10732422 94.81199646 -0.11699219 95.87423706 -0.12695312 C108.6980288 0.00197399 120.3893042 5.40174406 129.75439453 14.09155273 C138.62368085 23.48045381 143.09720644 35.50156648 142.94189453 48.27905273 C142.93053467 49.59558838 142.93053467 49.59558838 142.91894531 50.9387207 C142.74666733 57.73049722 141.70820156 63.34467857 138.50439453 69.40405273 C137.85083984 70.68989258 137.85083984 70.68989258 137.18408203 72.00170898 C130.3859833 84.31629767 120.35122481 91.41880234 107.10993576 95.75592232 C102.43954201 96.91768641 97.79815721 96.82893549 93.00878906 96.80810547 C91.89372986 96.81496872 90.77867065 96.82183197 89.62982178 96.8289032 C85.96548514 96.8471157 82.30157896 96.84334118 78.63720703 96.83764648 C76.07567202 96.84221113 73.51413823 96.84751754 70.9526062 96.85353088 C65.59139446 96.8624513 60.23033772 96.86028709 54.86914062 96.85009766 C48.69728307 96.83862572 42.52586054 96.85268563 36.35406029 96.87949413 C30.38625045 96.90443311 24.41857423 96.90681018 18.4507103 96.90037727 C15.92548779 96.90022445 13.40025676 96.9062364 10.87506485 96.91866875 C7.33598247 96.93363837 3.79784306 96.92285637 0.25878906 96.90576172 C-0.77220917 96.91542969 -1.8032074 96.92509766 -2.865448 96.93505859 C-15.68923973 96.80613148 -27.38051514 91.40636141 -36.74560547 82.71655273 C-45.61489179 73.32765166 -50.08841738 61.30653898 -49.93310547 48.52905273 C-49.92553223 47.6513623 -49.91795898 46.77367187 -49.91015625 45.86938477 C-49.73787827 39.07760825 -48.6994125 33.4634269 -45.49560547 27.40405273 C-45.05990234 26.54682617 -44.62419922 25.68959961 -44.17529297 24.80639648 C-37.37719424 12.4918078 -27.34243575 5.38930313 -14.1011467 1.05218315 C-9.43075295 -0.10958094 -4.78936815 -0.02083003 0 0 Z " fill="#FF7161" transform="translate(209.49560546875,111.595947265625)"/>
<path d="M0 0 C1.13111206 0.00302124 2.26222412 0.00604248 3.4276123 0.00915527 C7.61720012 0.02474666 11.80665695 0.06662993 15.99609375 0.10546875 C30.07265625 0.19828125 30.07265625 0.19828125 44.43359375 0.29296875 C44.43359375 31.97296875 44.43359375 63.65296875 44.43359375 96.29296875 C35.09046875 96.37546875 25.74734375 96.45796875 16.12109375 96.54296875 C11.7292981 96.59759277 11.7292981 96.59759277 7.2487793 96.65332031 C4.89763113 96.6650156 2.54647479 96.67520543 0.1953125 96.68359375 C-1.00073608 96.70405762 -2.19678467 96.72452148 -3.42907715 96.74560547 C-17.00206323 96.7511836 -28.83935191 91.863115 -38.81640625 82.60546875 C-47.68569257 73.21656768 -52.15921816 61.195455 -52.00390625 48.41796875 C-51.99633301 47.54027832 -51.98875977 46.66258789 -51.98095703 45.75830078 C-51.80867905 38.96652427 -50.77021328 33.35234292 -47.56640625 27.29296875 C-47.13070312 26.43574219 -46.695 25.57851562 -46.24609375 24.6953125 C-39.49820151 12.47167164 -29.46785288 5.2488898 -16.30311584 0.93424988 C-10.93193637 -0.32435499 -5.48761995 -0.06982078 0 0 Z " fill="#F14E1D" transform="translate(211.56640625,111.70703125)"/>
<path d="M0 0 C1.91195412 0.00636726 1.91195412 0.00636726 3.86253357 0.01286316 C7.22134868 0.02673452 10.57953074 0.05360017 13.93817139 0.0869751 C17.37734563 0.11788146 20.81658575 0.13141203 24.25585938 0.14648438 C30.98194301 0.17944384 37.70773191 0.22956108 44.43359375 0.29296875 C44.52684743 7.66513728 44.59763618 15.03717574 44.64084244 22.4098177 C44.66159406 25.83437962 44.68967878 29.25853392 44.73535156 32.68286133 C44.78768972 36.63227218 44.80664169 40.58152604 44.82421875 44.53125 C44.84486389 45.74315506 44.86550903 46.95506012 44.88677979 48.20368958 C44.89030804 61.75472141 39.98674675 73.58422819 30.74609375 83.54296875 C21.35719268 92.41225507 9.33608 96.88578066 -3.44140625 96.73046875 C-4.31909668 96.72289551 -5.19678711 96.71532227 -6.10107422 96.70751953 C-12.89285073 96.53524155 -18.50703208 95.49677578 -24.56640625 92.29296875 C-25.85224609 91.63941406 -25.85224609 91.63941406 -27.1640625 90.97265625 C-39.52907459 84.14672197 -46.67144687 74.04190122 -50.9621582 60.7175293 C-51.98344203 56.61960214 -52.05502834 52.62377462 -52.00390625 48.41796875 C-51.99633301 47.54027832 -51.98875977 46.66258789 -51.98095703 45.75830078 C-51.80867905 38.96652427 -50.77021328 33.35234292 -47.56640625 27.29296875 C-47.13070312 26.43574219 -46.695 25.57851563 -46.24609375 24.6953125 C-39.49820151 12.47167164 -29.46785288 5.2488898 -16.30311584 0.93424988 C-10.93187224 -0.32437002 -5.48758211 -0.06951973 0 0 Z " fill="#09CE82" transform="translate(211.56640625,303.70703125)"/>
<path d="M0 0 C1.31653564 0.01135986 1.31653564 0.01135986 2.65966797 0.02294922 C9.45144448 0.1952272 15.06562583 1.23369297 21.125 4.4375 C21.98222656 4.87320313 22.83945312 5.30890625 23.72265625 5.7578125 C36.08766834 12.58374678 43.23004062 22.68856753 47.52075195 36.01293945 C48.54203578 40.11086661 48.61362209 44.10669413 48.5625 48.3125 C48.55492676 49.19019043 48.54735352 50.06788086 48.53955078 50.97216797 C48.3672728 57.76394448 47.32880703 63.37812583 44.125 69.4375 C43.47144531 70.72333984 43.47144531 70.72333984 42.8046875 72.03515625 C35.97875322 84.40016834 25.87393247 91.54254062 12.54956055 95.83325195 C8.45163339 96.85453578 4.45580587 96.92612209 0.25 96.875 C-0.62769043 96.86742676 -1.50538086 96.85985352 -2.40966797 96.85205078 C-9.20144448 96.6797728 -14.81562583 95.64130703 -20.875 92.4375 C-22.16083984 91.78394531 -22.16083984 91.78394531 -23.47265625 91.1171875 C-35.83766834 84.29125322 -42.98004062 74.18643247 -47.27075195 60.86206055 C-48.29203578 56.76413339 -48.36362209 52.76830587 -48.3125 48.5625 C-48.30492676 47.68480957 -48.29735352 46.80711914 -48.28955078 45.90283203 C-48.1172728 39.11105552 -47.07880703 33.49687417 -43.875 27.4375 C-43.43929688 26.58027344 -43.00359375 25.72304687 -42.5546875 24.83984375 C-35.72875322 12.47483166 -25.62393247 5.33245938 -12.29956055 1.04174805 C-8.20163339 0.02046422 -4.20580587 -0.05112209 0 0 Z " fill="#19BBFD" transform="translate(303.875,207.5625)"/>
</svg>
